<svg width="24" height="24" viewBox="0 0 24 24" fill="none" xmlns="http://www.w3.org/2000/svg">
<path d="M9.14551 3C12.5397 3 15.2918 5.75141 15.292 9.14551C15.292 12.5398 12.5398 15.292 9.14551 15.292C5.75141 15.2918 3 12.5397 3 9.14551C3.00018 5.75152 5.75152 3.00018 9.14551 3Z" stroke="#27498C" stroke-width="2"/>
<path d="M20.1435 19.2422C20.3842 19.4795 20.3853 19.8678 20.1463 20.1068C19.9098 20.3429 19.5275 20.3446 19.2893 20.1102L13.7505 14.6516C13.5099 14.4144 13.5083 14.0267 13.7471 13.7877C13.9836 13.5511 14.3671 13.5494 14.6054 13.7842L20.1435 19.2422Z" fill="#F5F5F5" stroke="#27498C" stroke-width="2" stroke-linejoin="round"/>
<path d="M6.7474 8C6.61868 8.11791 6.50332 8.25116 6.40396 8.39699C6.14951 8.77044 6 9.22638 6 9.71857C6 10.9114 6.87812 11.8914 8 12" stroke="#27498C" stroke-width="2" stroke-linecap="round"/>
</svg>
