<svg width="256" height="256" viewBox="0 0 256 256" fill="none" xmlns="http://www.w3.org/2000/svg">
<path d="M156.233 213.333V190.667C156.233 179.621 165.187 170.667 176.233 170.667H199.866" stroke="#27498C" stroke-width="20" stroke-linecap="round" stroke-linejoin="round"/>
<path d="M51 204V52C51 40.9543 59.9543 32 71 32H185C196.046 32 205 40.9543 205 52V183.939C205 189.111 202.996 194.082 199.41 197.808L180.101 217.869C176.33 221.787 171.128 224 165.691 224H71C59.9543 224 51 215.046 51 204Z" stroke="#27498C" stroke-width="20" stroke-linecap="round" stroke-linejoin="round"/>
<line x1="81.5331" y1="75.3335" x2="164.2" y2="75.3335" stroke="#27498C" stroke-width="20" stroke-linecap="round"/>
<path d="M81.7998 117.333H163.933" stroke="#27498C" stroke-width="20" stroke-linecap="round"/>
<line x1="81.5331" y1="160.667" x2="133.4" y2="160.667" stroke="#27498C" stroke-width="20" stroke-linecap="round"/>
</svg>
