<svg width="20" height="20" viewBox="0 0 20 20" fill="none" xmlns="http://www.w3.org/2000/svg">
<path d="M12.2 16.2222V15.1111C12.2 14.0065 13.0954 13.1111 14.2 13.1111H15.6" stroke="#27498C" stroke-width="1.5" stroke-linecap="round" stroke-linejoin="round"/>
<path d="M4 15V5C4 3.89543 4.89543 3 6 3H14C15.1046 3 16 3.89543 16 5V13.8217C16 14.3619 15.7815 14.8791 15.3942 15.2557L14.1822 16.434C13.8089 16.7969 13.3087 17 12.788 17H6C4.89543 17 4 16.1046 4 15Z" stroke="#27498C" stroke-width="1.5" stroke-linecap="round" stroke-linejoin="round"/>
<line x1="6.34998" y1="6.13892" x2="12.85" y2="6.13892" stroke="#27498C" stroke-width="1.5" stroke-linecap="round"/>
<path d="M6.40002 9.22217H12.8" stroke="#27498C" stroke-width="1.5" stroke-linecap="round"/>
<line x1="6.34998" y1="12.3611" x2="10.45" y2="12.3611" stroke="#27498C" stroke-width="1.5" stroke-linecap="round"/>
</svg>
