<svg width="32" height="32" viewBox="0 0 32 32" fill="none" xmlns="http://www.w3.org/2000/svg">
<path d="M19.6256 27.5555V24.7777C19.6256 23.1209 20.9688 21.7777 22.6256 21.7777H25.2753" stroke="#27498C" stroke-width="2.5" stroke-linecap="round" stroke-linejoin="round"/>
<path d="M6 26V6C6 4.34315 7.34315 3 9 3H22.94C24.5969 3 25.94 4.34314 25.94 6V23.4963C25.94 24.2489 25.6571 24.9741 25.1475 25.5278L22.8433 28.0315C22.2752 28.6488 21.4747 29 20.6358 29H9C7.34315 29 6 27.6569 6 26Z" stroke="#27498C" stroke-width="2.5" stroke-linecap="round" stroke-linejoin="round"/>
<line x1="9.90869" y1="8.97229" x2="20.702" y2="8.97229" stroke="#27498C" stroke-width="2.5" stroke-linecap="round"/>
<path d="M9.98804 14.5557H20.6227" stroke="#27498C" stroke-width="2.5" stroke-linecap="round"/>
<line x1="9.90869" y1="20.5277" x2="16.714" y2="20.5277" stroke="#27498C" stroke-width="2.5" stroke-linecap="round"/>
</svg>
