<svg width="24" height="24" viewBox="0 0 24 24" fill="none" xmlns="http://www.w3.org/2000/svg">
<path d="M14.5667 20V18C14.5667 16.8954 15.4621 16 16.5667 16H18.5333" stroke="#27498C" stroke-width="2" stroke-linecap="round" stroke-linejoin="round"/>
<path d="M5 19V5C5 3.89543 5.89543 3 7 3H17C18.1046 3 19 3.89543 19 5V17.2117C19 17.7183 18.8078 18.206 18.4621 18.5763L16.793 20.3646C16.4148 20.7699 15.8853 21 15.3309 21H7C5.89543 21 5 20.1046 5 19Z" stroke="#27498C" stroke-width="2" stroke-linecap="round" stroke-linejoin="round"/>
<line x1="7.8667" y1="7" x2="15.2" y2="7" stroke="#27498C" stroke-width="2" stroke-linecap="round"/>
<path d="M7.80005 11H15.2667" stroke="#27498C" stroke-width="2" stroke-linecap="round"/>
<line x1="7.8667" y1="15" x2="12.4" y2="15" stroke="#27498C" stroke-width="2" stroke-linecap="round"/>
</svg>
