<svg width="16" height="16" viewBox="0 0 16 16" fill="none" xmlns="http://www.w3.org/2000/svg">
<path d="M6.90625 2.97559C7.59662 2.63977 8.40338 2.63977 9.09375 2.97559L12.7627 4.76074C13.2137 4.98014 13.5 5.43794 13.5 5.93945V6.125C13.5 6.74632 12.9963 7.25 12.375 7.25C12.306 7.25 12.25 7.30596 12.25 7.375V11C12.25 12.3807 11.1307 13.5 9.75 13.5H6.25C4.86929 13.5 3.75 12.3807 3.75 11V7.375C3.75 7.30596 3.69404 7.25 3.625 7.25C3.00368 7.25 2.5 6.74632 2.5 6.125V5.93945L2.5127 5.75391C2.57361 5.32729 2.84265 4.95274 3.2373 4.76074L6.90625 2.97559Z" stroke="#27498C" stroke-linejoin="round"/>
<path d="M9.5 13V10C9.5 9.44772 9.05228 9 8.5 9H7.5C6.94772 9 6.5 9.44772 6.5 10V13" stroke="#27498C" stroke-linejoin="round"/>
</svg>
