<svg width="20" height="20" viewBox="0 0 20 20" fill="none" xmlns="http://www.w3.org/2000/svg">
<path d="M8.79688 3.75098C9.55633 3.38152 10.4437 3.38152 11.2031 3.75098L15.7812 5.97852C16.3739 6.26696 16.75 6.86823 16.75 7.52734V7.75C16.75 8.57843 16.0784 9.25 15.25 9.25V14C15.25 15.5188 14.0188 16.75 12.5 16.75H7.5C5.98122 16.75 4.75 15.5188 4.75 14V9.25C3.92157 9.25 3.25 8.57843 3.25 7.75V7.52734C3.25001 6.86823 3.62613 6.26696 4.21875 5.97852L8.79688 3.75098Z" stroke="#27498C" stroke-width="1.5" stroke-linejoin="round"/>
<path d="M12 17V12C12 11.4477 11.5523 11 11 11H9C8.44772 11 8 11.4477 8 12V17" stroke="#27498C" stroke-width="1.5" stroke-linejoin="round"/>
</svg>
