<svg width="32" height="32" viewBox="0 0 32 32" fill="none" xmlns="http://www.w3.org/2000/svg">
<path d="M14.0078 3.64258C15.2537 2.98135 16.7463 2.98135 17.9922 3.64258L26.5371 8.17676C27.5911 8.73614 28.25 9.83213 28.25 11.0254V11.625C28.25 13.0747 27.0747 14.25 25.625 14.25C25.556 14.25 25.5 14.306 25.5 14.375V25C25.5 27.3472 23.5972 29.25 21.25 29.25H10.75C8.40279 29.25 6.5 27.3472 6.5 25V14.375C6.5 14.306 6.44404 14.25 6.375 14.25C4.92525 14.25 3.75 13.0747 3.75 11.625V11.0254C3.75 9.83213 4.40887 8.73614 5.46289 8.17676L14.0078 3.64258Z" stroke="#27498C" stroke-width="2.5" stroke-linejoin="round"/>
<path d="M20 28V19C20 17.8954 19.1046 17 18 17H14C12.8954 17 12 17.8954 12 19V28" stroke="#27498C" stroke-width="2.5" stroke-linejoin="round"/>
</svg>
