<svg width="128" height="128" viewBox="0 0 128 128" fill="none" xmlns="http://www.w3.org/2000/svg">
<path d="M58.75 8.99316C62.064 7.38093 65.936 7.38092 69.25 8.99316L114.25 30.8857C118.379 32.8948 121 37.0846 121 41.6768V44.5C121 50.8513 115.851 56 109.5 56C108.672 56 108 56.6716 108 57.5V109C108 115.627 102.627 121 96 121H32C25.3726 121 20 115.627 20 109V57.5C20 56.6716 19.3284 56 18.5 56C12.1487 56 7 50.8513 7 44.5V41.6768C7 37.0846 9.62071 32.8948 13.75 30.8857L58.75 8.99316Z" stroke="#27498C" stroke-width="10" stroke-linejoin="round"/>
<path d="M81 121V72C81 68.134 77.866 65 74 65H54C50.134 65 47 68.134 47 72V121" stroke="#27498C" stroke-width="10" stroke-linejoin="round"/>
</svg>
