<svg width="24" height="24" viewBox="0 0 24 24" fill="none" xmlns="http://www.w3.org/2000/svg">
<path d="M10.6875 3.52637C11.516 3.12331 12.484 3.12331 13.3125 3.52637L19.708 6.6377C20.4984 7.02222 21 7.82417 21 8.70312V9C21 10.1046 20.1046 11 19 11V18C19 19.6569 17.6569 21 16 21H8C6.34315 21 5 19.6569 5 18V11C3.89543 11 3 10.1046 3 9V8.70312C3.00001 7.82417 3.50161 7.02222 4.29199 6.6377L10.6875 3.52637Z" stroke="#27498C" stroke-width="2" stroke-linejoin="round"/>
<path d="M15 20V15C15 13.8954 14.1046 13 13 13H11C9.89543 13 9 13.8954 9 15V20" stroke="#27498C" stroke-width="2" stroke-linejoin="round"/>
</svg>
