<svg width="64" height="64" viewBox="0 0 64 64" fill="none" xmlns="http://www.w3.org/2000/svg">
<path d="M29.375 5.49707C31.032 4.69095 32.968 4.69095 34.625 5.49707L56.125 15.9561C58.1897 16.9605 59.5 19.0555 59.5 21.3516V22.625C59.5 25.7316 56.9816 28.25 53.875 28.25C53.5298 28.25 53.25 28.5298 53.25 28.875V53.5C53.25 56.8137 50.5637 59.5 47.25 59.5H16.75C13.4363 59.5 10.75 56.8137 10.75 53.5V28.875C10.75 28.5298 10.4702 28.25 10.125 28.25C7.0184 28.25 4.5 25.7316 4.5 22.625V21.3516C4.50003 19.0555 5.81031 16.9605 7.875 15.9561L29.375 5.49707Z" stroke="#27498C" stroke-width="5" stroke-linejoin="round"/>
<path d="M40 59V46.5V37.5C40 35.567 38.433 34 36.5 34H27.5C25.567 34 24 35.567 24 37.5V59" stroke="#27498C" stroke-width="5" stroke-linejoin="round"/>
</svg>
