<svg width="48" height="48" viewBox="0 0 48 48" fill="none" xmlns="http://www.w3.org/2000/svg">
<path d="M22.0312 5.29004C23.274 4.68545 24.726 4.68545 25.9688 5.29004L41.0146 12.6094C42.535 13.349 43.5 14.8914 43.5 16.582V17.25C43.5 19.3211 41.8211 21 39.75 21C39.3358 21 39 21.3358 39 21.75V39C39 41.4853 36.9853 43.5 34.5 43.5H13.5C11.0147 43.5 9 41.4853 9 39V21.75C9 21.3358 8.66421 21 8.25 21C6.17893 21 4.5 19.3211 4.5 17.25V16.582C4.50003 14.8914 5.46505 13.349 6.98535 12.6094L22.0312 5.29004Z" stroke="#27498C" stroke-width="3" stroke-linejoin="round"/>
<path d="M30 43V29C30 27.3431 28.6569 26 27 26H21C19.3431 26 18 27.3431 18 29V43" stroke="#27498C" stroke-width="3" stroke-linejoin="round"/>
</svg>
