<svg width="256" height="256" viewBox="0 0 256 256" fill="none" xmlns="http://www.w3.org/2000/svg">
<path d="M114.977 17.1758C123.206 13.21 132.794 13.21 141.023 17.1758L228.725 59.4385C238.063 63.9388 244 73.3894 244 83.7559V87.5C244 100.341 233.591 110.75 220.75 110.75C218.955 110.75 217.5 112.205 217.5 114V212C217.5 228.569 204.069 242 187.5 242H68.5C51.9315 242 38.5 228.569 38.5 212V114C38.5 112.205 37.0449 110.75 35.25 110.75C22.4094 110.75 12 100.341 12 87.5V83.7559C12.0001 73.3894 17.9367 63.9388 27.2754 59.4385L114.977 17.1758Z" stroke="#27498C" stroke-width="20" stroke-linejoin="round"/>
<path d="M163 234V182V150C163 138.954 154.046 130 143 130H113C101.954 130 93 138.954 93 150V234" stroke="#27498C" stroke-width="20" stroke-linejoin="round"/>
</svg>
